Coordinates
version=1
nRows=38
nColumns=12
inDegrees=yes

Units are S.I. units (second, meters, Newtons, ...)
Angles are in degrees

endheader
time	SC_y	SC_z	SC_x	AC_y	AC_z	AC_x	GH_y	GH_z	GH_yy	EL_x	PS_y
       0.0              -46.63          27.14          14.74          66.03         -15.35          5.849         -177.7          1.091         -143.1          135.6          59.07
 0.0002731              -46.63          27.14          14.74          66.02         -15.34          5.847         -177.7          1.102         -143.1          135.6          59.07
 0.0005461              -46.63          27.13          14.75          66.02         -15.34          5.846         -177.6          1.114         -143.1          135.6          59.07
 0.0008192              -46.63          27.13          14.75          66.02         -15.34          5.845         -177.6          1.127         -143.0          135.6          59.07
  0.001092              -46.63          27.12          14.75          66.02         -15.34          5.843         -177.5           1.14         -143.0          135.6          59.06
  0.001365              -46.63          27.12          14.75          66.02         -15.33          5.842         -177.5          1.155         -143.0          135.6          59.06
  0.001638              -46.63          27.11          14.75          66.02         -15.33           5.84         -177.4           1.17         -142.9          135.6          59.06
  0.001911              -46.63          27.11          14.75          66.02         -15.33          5.839         -177.4          1.187         -142.9          135.6          59.06
  0.002184              -46.63           27.1          14.75          66.02         -15.33          5.837         -177.3          1.205         -142.8          135.6          59.06
  0.002458              -46.63          27.09          14.75          66.02         -15.32          5.835         -177.2          1.224         -142.8          135.6          59.06
  0.002731              -46.63          27.08          14.75          66.02         -15.32          5.833         -177.1          1.244         -142.7          135.6          59.06
  0.003004              -46.63          27.08          14.75          66.02         -15.32          5.831         -177.1          1.266         -142.7          135.6          59.06
  0.003277              -46.63          27.07          14.75          66.01         -15.31          5.828         -177.0           1.29         -142.6          135.6          59.06
   0.00355              -46.63          27.06          14.75          66.01         -15.31          5.826         -176.9          1.315         -142.5          135.6          59.06
  0.003823              -46.62          27.05          14.75          66.01          -15.3          5.823         -176.8          1.343         -142.4          135.6          59.06
  0.004096              -46.62          27.04          14.75          66.01          -15.3           5.82         -176.7          1.373         -142.4          135.6          59.05
  0.004369              -46.62          27.03          14.75          66.01         -15.29          5.816         -176.5          1.405         -142.3          135.6          59.05
  0.004642              -46.62          27.01          14.75          66.01         -15.29          5.813         -176.4          1.441         -142.2          135.6          59.05
  0.004915              -46.62           27.0          14.75           66.0         -15.28          5.809         -176.3          1.479         -142.1          135.6          59.05
  0.005188              -46.62          26.98          14.76           66.0         -15.27          5.805         -176.1          1.522         -141.9          135.6          59.05
  0.005461              -46.62          26.97          14.76           66.0         -15.26            5.8         -175.9          1.568         -141.8          135.6          59.05
  0.005734              -46.62          26.95          14.76           66.0         -15.26          5.795         -175.7           1.62         -141.7          135.6          59.04
  0.006007              -46.62          26.93          14.76          65.99         -15.25          5.789         -175.5          1.676         -141.5          135.6          59.04
   0.00628              -46.61          26.91          14.76          65.99         -15.24          5.782         -175.3          1.739         -141.3          135.6          59.04
  0.006553              -46.61          26.88          14.76          65.99         -15.22          5.775         -175.0          1.809         -141.1          135.6          59.03
  0.006826              -46.61          26.85          14.76          65.98         -15.21          5.767         -174.7          1.887         -140.9          135.6          59.03
  0.007099              -46.61          26.82          14.77          65.98          -15.2          5.758         -174.4          1.974         -140.7          135.6          59.03
  0.007373              -46.61          26.79          14.77          65.97         -15.18          5.748         -174.0          2.072         -140.4          135.6          59.02
  0.007646               -46.6          26.75          14.77          65.97         -15.16          5.737         -173.6          2.183         -140.1          135.6          59.02
  0.007919               -46.6           26.7          14.77          65.96         -15.14          5.724         -173.1          2.309         -139.8          135.6          59.01
  0.008192               -46.6          26.65          14.78          65.95         -15.12          5.709         -172.6          2.452         -139.4          135.6          59.01
  0.008465              -46.59          26.59          14.78          65.94         -15.09          5.693         -171.9          2.617         -138.9          135.6           59.0
  0.008738              -46.59          26.52          14.79          65.93         -15.06          5.673         -171.2          2.807         -138.4          135.6          58.99
  0.009011              -46.58          26.44          14.79          65.92         -15.02          5.651         -170.4          3.029         -137.8          135.6          58.98
  0.009284              -46.58          26.35           14.8          65.91         -14.98          5.624         -169.4          3.287         -137.0          135.6          58.97
  0.009557              -46.57          26.24          14.81          65.89         -14.92          5.593         -168.2          3.592         -136.2          135.6          58.95
   0.00983              -46.56          26.11          14.81          65.87         -14.86          5.556         -166.9          3.955         -135.2          135.6          58.94
    0.0101              -46.55          25.95          14.83          65.85         -14.79          5.512         -165.2          4.389         -134.0          135.6          58.92
